<?xml version="1.0" encoding="UTF-8"?><svg xmlns="http://www.w3.org/2000/svg" xmlns:xlink="http://www.w3.org/1999/xlink" viewBox="0 0 1850 649.41086"><defs><style>.cls-1{fill:#00a0de;}.cls-2{fill:#fff;}.cls-3{fill:#36a9e1;}.cls-4{stroke:url(#Nepojmenovaný_přechod_32);}.cls-4,.cls-5,.cls-6,.cls-7,.cls-8,.cls-9,.cls-10,.cls-11{fill:none;stroke-miterlimit:10;stroke-width:6px;}.cls-5{stroke:url(#Nepojmenovaný_přechod_29);}.cls-6{stroke:url(#Nepojmenovaný_přechod_26);}.cls-7{stroke:url(#Nepojmenovaný_přechod_43);}.cls-12{fill:#004d9d;}.cls-13{fill:#0090d7;}.cls-14{fill:#006eb7;}.cls-15{fill:#006db6;}.cls-16{fill:#005ca9;}.cls-8{stroke:url(#Nepojmenovaný_přechod_34);}.cls-17{fill:#2a72b8;}.cls-18{fill:#22272e;}.cls-9{stroke:url(#Nepojmenovaný_přechod_25);}.cls-10{stroke:url(#Nepojmenovaný_přechod_62);}.cls-11{stroke:url(#Nepojmenovaný_přechod_42);}</style><linearGradient id="Nepojmenovaný_přechod_25" x1="-820.65894" y1="-80.063" x2="-426.77103" y2="-80.063" gradientTransform="translate(462.00672 185.39864) rotate(-27.46468) scale(.52089 .81975) skewX(-43.18496)" gradientUnits="userSpaceOnUse"><stop offset="0" stop-color="#36a9e1"/><stop offset="1" stop-color="#1d71b8"/></linearGradient><linearGradient id="Nepojmenovaný_přechod_26" x1="305.76061" y1="215.21388" x2="341.25011" y2="215.21388" gradientTransform="matrix(1, 0, 0, 1, 0, 0)" gradientUnits="userSpaceOnUse"><stop offset="0" stop-color="#2a72b8"/><stop offset="1" stop-color="#0090d7"/></linearGradient><linearGradient id="Nepojmenovaný_přechod_62" x1="-156.59022" y1="315.39324" x2="90.98541" y2="315.39324" gradientTransform="translate(104.51903 98.66225) rotate(-8.70025) scale(.74645 .9151) skewX(19.77232)" gradientUnits="userSpaceOnUse"><stop offset="0" stop-color="#36a9e1"/><stop offset="1" stop-color="#1d71b8"/></linearGradient><linearGradient id="Nepojmenovaný_přechod_42" x1="239.37566" y1="217.66346" x2="497.84524" y2="217.66346" gradientTransform="translate(159.14874 178.20361) rotate(-8.9213) scale(.80343 .96362) skewX(11.20415)" gradientUnits="userSpaceOnUse"><stop offset="0" stop-color="#006cb5"/><stop offset="1" stop-color="#005ca9"/></linearGradient><linearGradient id="Nepojmenovaný_přechod_43" x1="100.2578" y1="280.78815" x2="545.29194" y2="280.78815" gradientTransform="translate(356.73718 248.28442) rotate(-17.6591) scale(.68943 .91634) skewX(-22.81501)" gradientUnits="userSpaceOnUse"><stop offset="0" stop-color="#1d71b8"/><stop offset="1" stop-color="#004d9d"/></linearGradient><linearGradient id="Nepojmenovaný_přechod_34" x1="532.6267" y1="843.92804" x2="550.90068" y2="843.92804" gradientTransform="translate(-12.35686 -88.07869) rotate(10.60585) scale(.99888 .40397) skewX(-2.48618)" gradientUnits="userSpaceOnUse"><stop offset="0" stop-color="#006db6"/><stop offset="1" stop-color="#006eb7"/></linearGradient><linearGradient id="Nepojmenovaný_přechod_29" x1="1036.30537" y1="-1628.313" x2="1054.57934" y2="-1628.313" gradientTransform="translate(974.44162 1335.83101) rotate(-97.1386) scale(.99877 .29061) skewX(-2.71978)" gradientUnits="userSpaceOnUse"><stop offset="0" stop-color="#2a72b8"/><stop offset="1" stop-color="#006db6"/></linearGradient><linearGradient id="Nepojmenovaný_přechod_32" x1="1645.88937" y1="1122.63862" x2="1664.16334" y2="1122.63862" gradientTransform="translate(1857.09392 -366.00031) rotate(138.78911) scale(.99887 .40278) skewX(-2.48904)" gradientUnits="userSpaceOnUse"><stop offset="0" stop-color="#2a72b8"/><stop offset="1" stop-color="#006eb7"/></linearGradient></defs><g id="Vrstva_2"><rect class="cls-18" width="1850" height="649.41086" rx="50" ry="50"/></g><g id="Vrstva_1"><line class="cls-9" x1="91.44773" y1="240.77241" x2="264.94907" y2="277.12627"/><line class="cls-6" x1="338.40255" y1="170.28362" x2="308.60817" y2="260.14415"/><line class="cls-10" x1="139.57934" y1="436.58871" x2="275.67819" y2="313.12836"/><line class="cls-11" x1="430.8784" y1="392.96815" x2="606.04989" y2="275.25644"/><line class="cls-7" x1="423.62084" y1="415.85739" x2="714.85385" y2="485.45557"/><line class="cls-8" x1="428.64531" y1="292.70299" x2="413.01363" y2="387.06073"/><line class="cls-5" x1="331.4878" y1="286.70265" x2="399.61505" y2="277.12627"/><line class="cls-4" x1="384.35556" y1="386.08277" x2="320.0447" y2="315.67012"/><circle class="cls-13" cx="350.85911" cy="134.85941" r="40.00232"/><circle class="cls-3" cx="68.10018" cy="235.88038" r="30.00174"/><circle class="cls-16" cx="640.4173" cy="246.70033" r="46.00267"/><circle class="cls-12" cx="719.50614" cy="489.17739" r="36.00209"/><circle class="cls-17" cx="300.42835" cy="286.70265" r="38.0022"/><circle class="cls-1" cx="123.82763" cy="453.17531" r="38.0022"/><circle class="cls-14" cx="405.19779" cy="413.17299" r="40.00232"/><circle class="cls-15" cx="430.85936" cy="277.12627" r="36.00209"/><g><path class="cls-2" d="M980.80664,249.58678h37.0293v11.27051h-24.26465v23.34473h19.5498v11.5h-19.5498v27.0249h28.06055v11.38477h-40.8252v-84.5249Z"/><path class="cls-2" d="M1033.82129,281.32701h12.18945l.11523,9.66016c1.45508-3.21973,3.75586-5.86523,6.90039-7.93457,3.14258-2.07031,6.82227-3.10547,11.04004-3.10547,5.44238,0,9.62012,1.13184,12.53418,3.39258,2.91309,2.2627,4.86816,5.4248,5.86523,9.4873,.99609,4.06445,1.49512,9.354,1.49512,15.86963v25.41504h-12.41992v-25.07031c0-6.66992-.65234-11.479-1.95508-14.43213-1.30469-2.9502-3.9873-4.42676-8.0498-4.42676-2.2998,0-4.63965,.70898-7.01465,2.12695-2.37793,1.41992-4.35254,3.46973-5.92285,6.15234-1.57227,2.68408-2.35742,5.82764-2.35742,9.43018v26.21973h-12.41992v-52.78467Z"/><path class="cls-2" d="M1100.17578,281.32701h11.95996v9.77539c4.21484-7.43555,10.80957-11.15527,19.7793-11.15527,7.43555,0,13.45508,2.35742,18.05566,7.07227,4.59961,4.71484,6.89941,11.52051,6.89941,20.4126,0,5.51953-1.13184,10.38965-3.39258,14.60449-2.26172,4.21777-5.3291,7.47559-9.19922,9.77539-3.87305,2.2998-8.18555,3.4502-12.9375,3.4502-4.44727,0-8.2998-.78711-11.55762-2.35742-3.25977-1.57129-5.80762-3.81348-7.64746-6.72754l.11523,35.87988h-12.0752v-80.72998Zm39.79004,38.69678c2.68262-3.17969,4.02441-7.2627,4.02441-12.24707,0-5.21289-1.32227-9.37158-3.9668-12.47705-2.64551-3.10547-6.49805-4.65723-11.55762-4.65723-2.76074,0-5.34766,.67188-7.7627,2.0127-2.41504,1.3418-4.33203,3.25879-5.75,5.75-1.41992,2.4917-2.12793,5.38623-2.12793,8.68115v.80566c0,3.29688,.70801,6.22949,2.12793,8.79688,1.41797,2.57031,3.31543,4.5625,5.69238,5.98047,2.375,1.41895,4.98242,2.12695,7.82031,2.12695,4.98242,0,8.81543-1.58984,11.5-4.77246Z"/><path class="cls-2" d="M1171.12891,249.58678h12.30469v84.5249h-12.30469v-84.5249Z"/><path class="cls-2" d="M1211.08984,331.86949c-4.02441-2.26074-7.24414-5.48047-9.65918-9.66016-2.41504-4.17773-3.62305-9.06543-3.62305-14.66309,0-5.51953,1.05273-10.34912,3.16309-14.48877,2.10742-4.14062,5.11719-7.36035,9.02734-9.66016s8.50977-3.4502,13.7998-3.4502c3.06543,0,5.94043,.53711,8.625,1.61035,2.68262,1.07422,4.94531,2.39648,6.78516,3.9668,1.83984,1.57227,3.06543,3.125,3.67969,4.6582l.23047-8.85547h11.84473v52.78467h-11.73047l-.22949-9.31543c-1.30469,2.76074-3.67969,5.19531-7.12988,7.30273-3.4502,2.1084-7.32227,3.16309-11.61523,3.16309-4.75488,0-9.14258-1.13281-13.16797-3.39258Zm26.27832-11.5c2.98926-3.02832,4.48438-6.99512,4.48438-11.90234v-.80566c0-3.29492-.68945-6.24707-2.06934-8.854-1.38086-2.60547-3.25977-4.6377-5.63574-6.0957-2.37695-1.45508-4.98438-2.18457-7.81934-2.18457-4.90723,0-8.70215,1.5918-11.38574,4.77246-2.68457,3.18262-4.02441,7.30225-4.02441,12.36182,0,5.1377,1.32227,9.29688,3.96777,12.47754,2.64453,3.18262,6.45801,4.77246,11.44238,4.77246,4.37012,0,8.0498-1.5127,11.04004-4.54199Z"/><path class="cls-2" d="M1276.23633,291.44713h-9.31445v-10.12012h9.31445v-21.50488l12.53516-2.75977v24.26465h12.19043v10.12012h-12.19043v42.66455h-12.53516v-42.66455Z"/><path class="cls-2" d="M1320.28027,331.52379c-4.2168-2.49023-7.32227-5.8252-9.31543-10.00488-1.99414-4.17773-2.98926-8.75781-2.98926-13.74219,0-5.5957,1.16797-10.50244,3.50684-14.71924,2.33789-4.21582,5.57812-7.45508,9.71777-9.71777,4.13965-2.26074,8.81543-3.39258,14.03027-3.39258,8.125,0,14.16309,2.24219,18.1123,6.72754,3.94727,4.48535,5.92285,10.79199,5.92285,18.91748,0,2.06934-.11523,4.2168-.3457,6.43945h-37.94922c.84277,4.67773,2.50977,8.0498,5.00195,10.12012,2.49023,2.07031,5.95996,3.10449,10.40723,3.10449,3.68066,0,6.70801-.30469,9.08496-.91992,2.37598-.6123,4.56055-1.45508,6.55566-2.5293l3.79492,8.85449c-1.91699,1.22754-4.52441,2.2998-7.82031,3.21973-3.29688,.9209-7.28418,1.38086-11.95996,1.38086-6.28711,0-11.53906-1.24609-15.75488-3.73828Zm26.91016-28.11719c.0752-4.75244-.95996-8.10693-3.10547-10.06201-2.14648-1.95508-5.21387-2.93262-9.19922-2.93262-8.05078,0-12.69043,4.33203-13.91504,12.99463h26.21973Z"/><path class="cls-2" d="M1382.43848,331.86949c-4.02539-2.26074-7.24609-5.48047-9.66113-9.66016-2.41504-4.17773-3.62207-9.06543-3.62207-14.66309,0-8.35498,2.33789-15.04443,7.01465-20.06689,4.6748-5.02051,11.00098-7.53223,18.97559-7.53223,4.44531,0,8.50977,1.09277,12.18945,3.27734,3.67969,2.18555,6.16992,4.8125,7.47461,7.87793l-.57422-8.9707v-32.54492h12.18945v84.5249h-11.84375l-.23047-9.31543c-1.30469,2.76074-3.67969,5.19531-7.13086,7.30273-3.44922,2.1084-7.32227,3.16309-11.61523,3.16309-4.75391,0-9.14258-1.13281-13.16602-3.39258Zm26.27734-11.61523c2.99023-3.02734,4.48438-6.99512,4.48438-11.90234v-.80566c0-3.29492-.68945-6.24707-2.07031-8.854-1.37891-2.60547-3.25977-4.6377-5.63477-6.09473-2.37695-1.45605-4.98438-2.18555-7.82031-2.18555-4.90625,0-8.70117,1.5918-11.38477,4.77246-2.68359,3.18262-4.02539,7.30225-4.02539,12.36182,0,5.1377,1.32227,9.29785,3.96875,12.47754,2.64453,3.18262,6.45703,4.77246,11.44141,4.77246,4.37109,0,8.05078-1.5127,11.04102-4.54199Z"/><path class="cls-2" d="M1477.59863,332.84703c-4.52441-1.61035-7.78223-3.41113-9.77441-5.40527l6.09473-10.9248c1.61035,1.45703,4.12012,2.97168,7.53223,4.54199,3.41113,1.57227,6.68848,2.35742,9.83301,2.35742,4.0625,0,7.37793-.95703,9.94727-2.875,2.56738-1.91504,3.85254-4.56055,3.85254-7.93457,0-2.60547-.69043-4.86816-2.07031-6.78516-1.37988-1.91504-3.06738-3.50781-5.05957-4.77246-1.99512-1.26465-4.83008-2.81689-8.50977-4.65674-4.37012-2.14551-7.36035-3.75586-8.9707-4.83008-7.43652-4.9834-11.1543-11.88281-11.1543-20.7002,0-7.2832,2.41504-12.86035,7.24414-16.73242,4.83008-3.87012,10.92578-5.80762,18.28516-5.80762,7.89551,0,14.60547,2.2627,20.125,6.78516l-6.09473,10.46484c-1.45703-1.53223-3.50781-2.85547-6.15234-3.96777-2.64551-1.11035-5.46289-1.66699-8.45312-1.66699-3.83398,0-6.8418,.8623-9.02734,2.58691-2.18457,1.72559-3.27734,4.27539-3.27734,7.64746,0,2.37793,.69043,4.50488,2.07031,6.38281,1.37988,1.87988,3.12305,3.50781,5.23242,4.8877,2.10742,1.37988,4.96289,3.06738,8.56738,5.05957,3.4502,1.91797,6.09473,3.43262,7.93457,4.54297,1.84082,1.1123,3.56543,2.43457,5.17578,3.96777,2.22266,1.99414,4.02441,4.36865,5.4043,7.12939,1.38086,2.75977,2.07031,5.78906,2.07031,9.08496,0,5.13672-1.16992,9.50684-3.50781,13.10938-2.33887,3.60449-5.55957,6.3252-9.65918,8.16504-4.10254,1.84082-8.75977,2.76074-13.97266,2.76074-4.60059,0-9.16211-.80566-13.68555-2.41504Z"/><path class="cls-2" d="M1546.59863,335.72203l-21.84961-54.39502h14.03027l11.26953,33.57959,2.53027,8.16504,2.53027-8.16504,11.84473-33.57959h13.56934l-32.42969,81.76514h-12.87988l11.38477-27.37012Z"/><path class="cls-2" d="M1588.57324,281.32701h12.19043l.11426,9.66016c1.45605-3.21973,3.75586-5.86523,6.90039-7.93457,3.14258-2.07031,6.82227-3.10547,11.04004-3.10547,5.44238,0,9.62012,1.13184,12.53516,3.39258,2.91211,2.2627,4.86719,5.4248,5.86426,9.4873,.99609,4.06445,1.49512,9.354,1.49512,15.86963v25.41504h-12.41992v-25.07031c0-6.66992-.65234-11.479-1.95508-14.43213-1.30469-2.9502-3.9873-4.42676-8.0498-4.42676-2.2998,0-4.63965,.70898-7.01465,2.12695-2.37793,1.41992-4.35254,3.46973-5.92285,6.15234-1.57227,2.68408-2.35742,5.82764-2.35742,9.43018v26.21973h-12.41992v-52.78467Z"/><path class="cls-2" d="M1665.21973,331.86949c-4.17969-2.26074-7.49512-5.52051-9.94727-9.77539-2.45508-4.25488-3.68066-9.25781-3.68066-15.00781,0-5.44238,1.13086-10.21436,3.39258-14.31689,2.26074-4.10059,5.44336-7.2627,9.54492-9.4873,4.10059-2.22266,8.83594-3.33496,14.20312-3.33496,4.0625,0,7.57031,.51758,10.52246,1.55273,2.9502,1.03516,5.27051,2.31934,6.95703,3.85254l-5.51953,10.00488c-3.21973-3.21973-6.8623-4.83008-10.9248-4.83008-4.90723,0-8.64551,1.49512-11.21289,4.48535-2.56934,2.98926-3.85254,6.97607-3.85254,11.95947,0,5.67383,1.32227,10.08203,3.96777,13.22461,2.64453,3.14453,6.34277,4.71484,11.09766,4.71484,2.375,0,4.69531-.34473,6.95703-1.03516,2.26074-.68945,4.00488-1.49512,5.23242-2.41504l4.48535,8.74023c-1.6875,1.30469-4.04492,2.47266-7.07227,3.50781-3.03027,1.03516-6.38281,1.55273-10.0625,1.55273-5.21484,0-9.91016-1.13281-14.08789-3.39258Z"/><path class="cls-2" d="M1717.48633,331.52379c-4.21777-2.49023-7.32227-5.8252-9.31543-10.00488-1.99414-4.17773-2.99023-8.75781-2.99023-13.74219,0-5.5957,1.16797-10.50244,3.50781-14.71924,2.33789-4.21582,5.57715-7.45508,9.71777-9.71777,4.13965-2.26074,8.81543-3.39258,14.03027-3.39258,8.125,0,14.16211,2.24219,18.1123,6.72754,3.94727,4.48535,5.92188,10.79199,5.92188,18.91748,0,2.06934-.11426,4.2168-.34473,6.43945h-37.9502c.84277,4.67773,2.51074,8.0498,5.00293,10.12012,2.49023,2.07031,5.95996,3.10449,10.40723,3.10449,3.67969,0,6.70801-.30469,9.08496-.91992,2.37598-.6123,4.56055-1.45508,6.55566-2.5293l3.79492,8.85449c-1.91797,1.22754-4.52539,2.2998-7.82031,3.21973-3.29688,.9209-7.28418,1.38086-11.95996,1.38086-6.28711,0-11.54004-1.24609-15.75488-3.73828Zm26.91016-28.11719c.0752-4.75244-.95996-8.10693-3.10547-10.06201-2.14746-1.95508-5.21484-2.93262-9.2002-2.93262-8.0498,0-12.68945,4.33203-13.91504,12.99463h26.2207Z"/><path class="cls-2" d="M1769.12109,281.32701h12.41992v10.35059c1.22559-3.52637,3.21973-6.36328,5.97949-8.51074,2.76074-2.14551,5.90332-3.21973,9.43066-3.21973,2.45215,0,4.13965,.23047,5.05957,.69043l-1.72461,12.53418c-.69043-.45996-2.18555-.68945-4.48535-.68945-3.60449,0-6.88184,1.14941-9.83203,3.4502-2.95312,2.2998-4.42773,5.979-4.42773,11.03955v27.13965h-12.41992v-52.78467Z"/></g><g><path class="cls-2" d="M1084.30078,425.38219c6.03906,0,10.66992,1.10059,13.88965,3.2998,3.21973,2.2002,4.83008,5.64062,4.83008,10.32031,0,2.44043-.43066,4.53027-1.29004,6.26953-.86035,1.74023-2.11035,3.16113-3.75,4.26074-1.64062,1.10059-3.64062,1.91016-6,2.42969-2.36035,.52051-5.06055,.78027-8.09961,.78027h-3.78027v14.63965h-7.55957v-40.98047c1.75879-.39844,3.70898-.66895,5.84961-.80957,2.13965-.13965,4.11035-.20996,5.91016-.20996Zm.54004,6.54004c-1.91992,0-3.50098,.05957-4.74023,.17969v14.16016h3.66016c3.63965,0,6.43945-.50977,8.39941-1.53027,1.95996-1.01953,2.94043-2.94922,2.94043-5.79004,0-1.35938-.26074-2.49902-.78027-3.41992-.52051-.91895-1.24023-1.63965-2.16016-2.15918s-2.00977-.89062-3.26953-1.11035-2.61035-.33008-4.0498-.33008Z"/><path class="cls-2" d="M1119.63965,435.22203c2.40039,0,4.41992,.2998,6.06055,.90039,1.63965,.59961,2.94922,1.43945,3.92969,2.51953,.97949,1.08008,1.68066,2.39062,2.10059,3.93066s.62988,3.23047,.62988,5.06934v19.02051c-1.12012,.23926-2.81055,.53027-5.07031,.87012-2.26074,.33887-4.81055,.50977-7.65039,.50977-1.87988,0-3.59961-.17969-5.15918-.54004-1.56055-.36035-2.89062-.93945-3.99023-1.74023-1.10059-.7998-1.96094-1.83887-2.58008-3.12012-.62109-1.2793-.92969-2.85938-.92969-4.74023,0-1.7998,.34961-3.31934,1.0498-4.55957,.69922-1.23926,1.64941-2.25,2.84961-3.03027,1.2002-.7793,2.58984-1.33984,4.16992-1.67969s3.22949-.50977,4.9502-.50977c.7998,0,1.63965,.05078,2.52051,.14941,.87891,.10059,1.81934,.27051,2.81934,.51074v-1.2002c0-.83984-.09961-1.63965-.2998-2.40039-.2002-.75879-.5498-1.42969-1.0498-2.00977-.50098-.5791-1.16113-1.0293-1.98047-1.34961-.82031-.32031-1.85059-.48047-3.08984-.48047-1.67969,0-3.21973,.12012-4.62012,.36035-1.40039,.23926-2.54004,.51953-3.41992,.83984l-.89941-5.87988c.91895-.32031,2.25879-.63965,4.01953-.95996,1.75977-.32031,3.63965-.48047,5.63965-.48047Zm.60059,27.06055c2.23926,0,3.93945-.12012,5.09961-.36035v-8.04004c-.40039-.12012-.98047-.24023-1.74023-.36035s-1.59961-.17969-2.51953-.17969c-.80078,0-1.61035,.05957-2.42969,.17969-.82031,.12012-1.56055,.34082-2.2207,.66016-.65918,.32129-1.19043,.77051-1.58984,1.35059-.40039,.58008-.59961,1.31055-.59961,2.18945,0,1.7207,.54004,2.91016,1.62012,3.57031s2.53906,.99023,4.37988,.99023Z"/><path class="cls-2" d="M1158.75977,442.54234c-.59961-.2002-1.43066-.41016-2.49023-.62988-1.06055-.21973-2.29004-.33008-3.68945-.33008-.80078,0-1.65039,.08008-2.55078,.24023-.89941,.16016-1.5293,.2998-1.88965,.41992v25.13965h-7.25977v-29.87988c1.39941-.51953,3.14941-1.00977,5.25-1.46973,2.09961-.45996,4.42969-.69043,6.99023-.69043,.47949,0,1.03906,.03027,1.67969,.08984,.63965,.06055,1.2793,.14062,1.91992,.24023,.63965,.10059,1.25977,.2207,1.86035,.36035,.59961,.14062,1.08008,.26953,1.43945,.38965l-1.25977,6.12012Z"/><path class="cls-2" d="M1164.33887,427.72203l7.25977-1.2002v9.48047h11.16016v6.05957h-11.16016v12.78027c0,2.52051,.39941,4.32031,1.2002,5.40039,.7998,1.08008,2.16016,1.62012,4.08008,1.62012,1.32031,0,2.49023-.14062,3.50977-.4209,1.02051-.2793,1.83008-.54004,2.43066-.7793l1.2002,5.75977c-.84082,.36035-1.94141,.73047-3.30078,1.11035-1.36035,.37891-2.95996,.56934-4.7998,.56934-2.24023,0-4.10938-.2998-5.60938-.89941-1.5-.60059-2.69141-1.4707-3.57031-2.61035-.88086-1.13965-1.5-2.51953-1.86035-4.13965-.35938-1.62012-.54004-3.46973-.54004-5.55078v-27.17969Z"/><path class="cls-2" d="M1231.41895,451.66246c0,2.48047-.36035,4.73926-1.08008,6.7793s-1.74023,3.78027-3.05957,5.2207c-1.32031,1.43945-2.91016,2.55957-4.77051,3.35938-1.85938,.7998-3.91016,1.2002-6.14941,1.2002-2.24121,0-4.28125-.40039-6.12012-1.2002-1.84082-.7998-3.41992-1.91992-4.74023-3.35938-1.32031-1.44043-2.35059-3.18066-3.08984-5.2207-.74121-2.04004-1.11035-4.29883-1.11035-6.7793,0-2.47949,.36914-4.72949,1.11035-6.75,.73926-2.01953,1.7793-3.75,3.12012-5.19043,1.33887-1.43945,2.92969-2.5498,4.76953-3.33008,1.83984-.7793,3.85938-1.16992,6.06055-1.16992,2.19922,0,4.22949,.39062,6.08984,1.16992,1.85938,.78027,3.4502,1.89062,4.76953,3.33008,1.32031,1.44043,2.34961,3.1709,3.08984,5.19043,.74023,2.02051,1.11035,4.27051,1.11035,6.75Zm-7.44043,0c0-3.12012-.66992-5.58984-2.00977-7.41016-1.34082-1.81934-3.20996-2.73047-5.60938-2.73047-2.40039,0-4.27051,.91113-5.61035,2.73047-1.34082,1.82031-2.00977,4.29004-2.00977,7.41016,0,3.16016,.66895,5.66016,2.00977,7.5,1.33984,1.83984,3.20996,2.75977,5.61035,2.75977,2.39941,0,4.26855-.91992,5.60938-2.75977,1.33984-1.83984,2.00977-4.33984,2.00977-7.5Z"/><path class="cls-2" d="M1251.33887,420.82262c1.67969,0,3.15918,.14941,4.43945,.44922,1.28027,.30078,2.24023,.57031,2.87988,.81055l-1.37988,6c-.68066-.32031-1.46973-.5791-2.37012-.78027-.89941-.19922-1.87012-.2998-2.91016-.2998-1.16016,0-2.13965,.1709-2.93945,.50977-.80078,.34082-1.44043,.81055-1.91992,1.41016-.48047,.59961-.82031,1.33008-1.02051,2.19043s-.2998,1.79004-.2998,2.78906v2.10059h11.40039v6.05957h-11.40039v25.32031h-7.25977v-33.59961c0-4.04004,1.05957-7.20996,3.17969-9.51074,2.12012-2.2998,5.31934-3.44922,9.60059-3.44922Z"/><path class="cls-2" d="M1305.39453,467.38219c-.9834-1.57812-2.1416-3.28418-3.47559-5.11719-1.33496-1.83398-2.77246-3.68164-4.31348-5.54492-1.54102-1.86133-3.15332-3.64746-4.83691-5.35547-1.68457-1.70898-3.36816-3.21777-5.05176-4.52832v20.5459h-10.91992v-48.50977h10.91992v18.23145c2.80859-2.94824,5.66016-6.0332,8.55664-9.25293,2.89648-3.21875,5.57227-6.21191,8.02539-8.97852h12.95801c-3.30078,3.93164-6.62207,7.71191-9.96289,11.33984-3.33984,3.62891-6.85645,7.28027-10.54688,10.95508,3.88086,3.2373,7.625,7.07617,11.22949,11.51953,3.60547,4.44238,7.07129,9.3418,10.40039,14.69531h-12.98242Z"/><path class="cls-2" d="M1336.78613,429.58238c3.08008,0,5.64648,.34961,7.7002,1.0498,2.05273,.7002,3.69824,1.7041,4.93457,3.00977,1.23633,1.30762,2.11133,2.89453,2.625,4.75977,.51367,1.86719,.77051,3.94434,.77051,6.23047v21.7002c-1.49414,.32715-3.57031,.71191-6.23047,1.15527-2.66016,.44238-5.87988,.66406-9.66016,.66406-2.37988,0-4.53906-.20996-6.47461-.62988-1.93652-.41992-3.60449-1.10742-5.00488-2.06445-1.40039-.95605-2.47363-2.20508-3.21973-3.74512-.74707-1.54004-1.12012-3.42969-1.12012-5.66992,0-2.14648,.43066-3.96582,1.29492-5.45996,.86328-1.49316,2.01758-2.68359,3.46484-3.57031,1.44629-.88574,3.10254-1.52832,4.96973-1.9248,1.86621-.39648,3.80371-.59473,5.81055-.59473,1.35254,0,2.55469,.05859,3.60449,.1748,1.0498,.11719,1.90137,.26855,2.55566,.45508v-.98047c0-1.77246-.53711-3.19531-1.61035-4.26953-1.07422-1.07324-2.94043-1.61035-5.59961-1.61035-1.77441,0-3.52441,.12891-5.25,.38477-1.72754,.25781-3.2207,.61914-4.48047,1.08496l-1.33008-8.39941c.60645-.18652,1.36523-.38477,2.27539-.59473,.91016-.21094,1.90039-.39648,2.97461-.56055,1.07324-.16309,2.20508-.30273,3.39551-.41992,1.18945-.11621,2.39062-.1748,3.60449-.1748Zm.83984,30.51953c1.02637,0,2.00586-.02246,2.94043-.06934,.93262-.0459,1.67969-.11621,2.24023-.20996v-7.91016c-.41992-.09277-1.05078-.18652-1.89062-.28027-.83984-.09277-1.60938-.13965-2.30957-.13965-.98047,0-1.90234,.05859-2.76562,.1748-.86328,.11719-1.62207,.33887-2.27441,.66504-.6543,.32715-1.16699,.76953-1.54004,1.33008-.37402,.55957-.56055,1.25977-.56055,2.09961,0,1.63379,.54883,2.76465,1.64551,3.39551,1.0957,.62988,2.60059,.94434,4.51465,.94434Z"/><path class="cls-2" d="M1384.03613,439.80211c-.93359-.23242-2.03027-.47754-3.29004-.73535-1.25977-.25586-2.61426-.38477-4.05957-.38477-.6543,0-1.43555,.05957-2.3457,.1748-.90918,.11719-1.59863,.24512-2.06445,.38574v28.13965h-10.42969v-34.86035c1.86523-.65234,4.07031-1.27051,6.61426-1.85449,2.54297-.58301,5.37793-.875,8.50488-.875,.56055,0,1.23633,.03516,2.03027,.10449,.79297,.07031,1.58594,.16406,2.37988,.28027,.79297,.11719,1.58594,.25684,2.37988,.41992,.79297,.16406,1.4707,.3623,2.03027,.59473l-1.75,8.61035Z"/><path class="cls-2" d="M1405.66504,468.08238c-3.0332-.04688-5.49414-.37402-7.38477-.98047-1.88965-.60547-3.38379-1.45801-4.47949-2.55469-1.09766-1.0957-1.84473-2.42578-2.24023-3.99023-.39746-1.5625-.59473-3.3252-.59473-5.28516v-40.5293l10.42969-1.68066v40.11035c0,.93359,.07031,1.77441,.20996,2.51953,.13965,.74707,.4082,1.37793,.80469,1.89062,.39648,.51367,.96777,.93359,1.71484,1.25977,.74609,.32715,1.75,.53711,3.01074,.62988l-1.4707,8.61035Z"/><path class="cls-2" d="M1447.10547,448.90172c0,2.89453-.41992,5.54297-1.25977,7.94531-.83984,2.4043-2.05371,4.45703-3.63965,6.16016-1.58789,1.7041-3.48926,3.02246-5.70508,3.95508-2.21777,.93262-4.70215,1.40039-7.45508,1.40039-2.70703,0-5.16895-.46777-7.38574-1.40039s-4.11816-2.25098-5.7041-3.95508c-1.58789-1.70312-2.82422-3.75586-3.70996-6.16016-.8877-2.40234-1.33008-5.05078-1.33008-7.94531,0-2.89258,.45508-5.5293,1.36426-7.90918,.91016-2.37988,2.16992-4.41016,3.78027-6.09082,1.61035-1.67969,3.52344-2.98535,5.74023-3.91992,2.21582-.93262,4.63086-1.39941,7.24512-1.39941,2.66016,0,5.09766,.4668,7.31445,1.39941,2.21582,.93457,4.11816,2.24023,5.70508,3.91992,1.58594,1.68066,2.82324,3.71094,3.70996,6.09082,.88574,2.37988,1.33008,5.0166,1.33008,7.90918Zm-10.63965,0c0-3.21973-.64258-5.75-1.9248-7.59473-1.28418-1.84277-3.11523-2.76465-5.49512-2.76465s-4.22461,.92188-5.53027,2.76465c-1.30664,1.84473-1.95996,4.375-1.95996,7.59473,0,3.2207,.65332,5.77539,1.95996,7.66504,1.30566,1.89062,3.15039,2.83496,5.53027,2.83496s4.21094-.94434,5.49512-2.83496c1.28223-1.88965,1.9248-4.44434,1.9248-7.66504Z"/><path class="cls-2" d="M1465.30469,459.89195c1.91309,0,3.2666-.18555,4.06055-.55957,.79297-.37305,1.18945-1.0957,1.18945-2.16992,0-.83984-.51367-1.5752-1.54004-2.20508s-2.58984-1.34082-4.68945-2.13477c-1.63477-.60645-3.11523-1.23633-4.44531-1.89062-1.33008-.65234-2.46191-1.43457-3.39453-2.34473-.93457-.91016-1.65723-1.99512-2.16992-3.25488-.51465-1.25977-.77051-2.77637-.77051-4.5498,0-3.45312,1.2832-6.18359,3.84961-8.19043,2.56641-2.00586,6.09082-3.00977,10.57031-3.00977,2.24023,0,4.38574,.19922,6.44043,.59473,2.05273,.39746,3.68555,.8291,4.89941,1.29492l-1.81934,8.12012c-1.21484-.41992-2.53223-.79297-3.95508-1.12012-1.4248-.32617-3.02246-.49023-4.79492-.49023-3.26758,0-4.90039,.91016-4.90039,2.73047,0,.41992,.07031,.79395,.20996,1.12012,.13965,.32715,.41992,.6416,.83984,.94434,.41992,.30469,.99121,.63281,1.71484,.98438,.72363,.35352,1.64551,.74219,2.76562,1.16406,2.28613,.84766,4.17578,1.68359,5.66992,2.50586,1.49316,.82324,2.6709,1.71289,3.53516,2.66699,.8623,.9541,1.46973,2.01465,1.81934,3.17773,.35059,1.16406,.52539,2.51465,.52539,4.05078,0,3.63184-1.36523,6.37988-4.09473,8.24219-2.73047,1.86133-6.59277,2.79395-11.58496,2.79395-3.26758,0-5.98535-.28027-8.15527-.84082-2.16992-.55957-3.6748-1.02539-4.51465-1.39941l1.75-8.4707c1.77246,.7002,3.59277,1.25,5.45996,1.64551,1.86523,.39746,3.70996,.59473,5.5293,.59473Z"/><path class="cls-2" d="M1522.7041,448.90172c0,2.89453-.41992,5.54297-1.25977,7.94531-.83984,2.4043-2.05371,4.45703-3.63965,6.16016-1.58789,1.7041-3.48926,3.02246-5.70508,3.95508-2.21777,.93262-4.70215,1.40039-7.45508,1.40039-2.70703,0-5.16895-.46777-7.38574-1.40039s-4.11816-2.25098-5.7041-3.95508c-1.58789-1.70312-2.82422-3.75586-3.70996-6.16016-.8877-2.40234-1.33008-5.05078-1.33008-7.94531,0-2.89258,.45508-5.5293,1.36426-7.90918,.91016-2.37988,2.16992-4.41016,3.78027-6.09082,1.61035-1.67969,3.52344-2.98535,5.74023-3.91992,2.21582-.93262,4.63086-1.39941,7.24512-1.39941,2.66016,0,5.09766,.4668,7.31445,1.39941,2.21582,.93457,4.11816,2.24023,5.70508,3.91992,1.58594,1.68066,2.82324,3.71094,3.70996,6.09082,.88574,2.37988,1.33008,5.0166,1.33008,7.90918Zm-10.63965,0c0-3.21973-.64258-5.75-1.9248-7.59473-1.28418-1.84277-3.11523-2.76465-5.49512-2.76465s-4.22461,.92188-5.53027,2.76465c-1.30664,1.84473-1.95996,4.375-1.95996,7.59473,0,3.2207,.65332,5.77539,1.95996,7.66504,1.30566,1.89062,3.15039,2.83496,5.53027,2.83496s4.21094-.94434,5.49512-2.83496c1.28223-1.88965,1.9248-4.44434,1.9248-7.66504Z"/><path class="cls-2" d="M1546.29395,413.06187c1.95996,0,3.75586,.19922,5.38965,.5957,1.63281,.39648,2.89258,.78125,3.78027,1.1543l-2.03027,8.33008c-.93359-.41992-1.94922-.73438-3.04492-.94434-1.09668-.20996-2.1123-.31543-3.04492-.31543-1.25977,0-2.32227,.1748-3.18555,.52539-.86328,.34961-1.54004,.8291-2.0293,1.43457-.49023,.60742-.83984,1.33008-1.05078,2.16992-.20996,.83984-.31445,1.75-.31445,2.73047v1.81934h12.87988v8.68066h-12.87988v28.13965h-10.42969v-38.78027c0-4.75977,1.34082-8.54004,4.02441-11.33984s6.66113-4.2002,11.93555-4.2002Z"/><path class="cls-2" d="M1559.10352,421.39195l10.43066-1.67969v10.84961h12.5293v8.68066h-12.5293v12.94922c0,2.19434,.38477,3.94434,1.1543,5.25,.77051,1.30762,2.32129,1.95996,4.65527,1.95996,1.12012,0,2.27539-.10449,3.46484-.31445,1.19043-.20996,2.27539-.50098,3.25488-.875l1.4707,8.12012c-1.26074,.51367-2.66016,.95703-4.2002,1.33008s-3.43066,.55957-5.66992,.55957c-2.84766,0-5.2041-.38477-7.07031-1.15527-1.86719-.76953-3.36035-1.84277-4.48047-3.21973-1.11914-1.37598-1.90137-3.04492-2.34473-5.00488-.44434-1.95996-.66504-4.12988-.66504-6.50977v-30.94043Z"/><path class="cls-2" d="M1630.85156,427.27184c-5.08691,0-8.76172,1.41211-11.02441,4.23535-2.26465,2.82422-3.39551,6.68457-3.39551,11.58496,0,2.37988,.28027,4.53906,.83984,6.47461,.56055,1.9375,1.40039,3.60547,2.52051,5.00586,1.12012,1.39941,2.51953,2.48438,4.2002,3.25488,1.67969,.76953,3.63965,1.1543,5.87988,1.1543,1.21289,0,2.25098-.02246,3.11426-.06934,.86328-.0459,1.62109-.14062,2.27539-.28027v-16.87012h10.91992v24.00977c-1.30664,.51465-3.40723,1.0625-6.2998,1.64551-2.89453,.58301-6.46387,.875-10.70996,.875-3.63965,0-6.94238-.56055-9.90527-1.67969-2.96387-1.12012-5.49512-2.75391-7.59473-4.90039s-3.72168-4.7832-4.86523-7.91016c-1.14355-3.12598-1.71484-6.69629-1.71484-10.70996,0-4.05957,.62988-7.65332,1.88965-10.78027,1.26074-3.12598,2.98633-5.77441,5.18066-7.94434,2.19238-2.16992,4.77051-3.81543,7.73438-4.93555,2.96289-1.12012,6.125-1.67969,9.48535-1.67969,2.28613,0,4.35059,.15234,6.19531,.45508,1.84277,.30371,3.42969,.6543,4.75977,1.0498,1.33008,.39746,2.42578,.80469,3.29004,1.22461,.86328,.41992,1.48047,.74707,1.85449,.98047l-3.14941,8.75c-1.49414-.79297-3.20898-1.48145-5.14551-2.06543-1.93652-.58301-4.04883-.875-6.33496-.875Z"/><path class="cls-2" d="M1677.40137,439.80211c-.93359-.23242-2.03027-.47754-3.29004-.73535-1.25977-.25586-2.61426-.38477-4.05957-.38477-.6543,0-1.43555,.05957-2.3457,.1748-.90918,.11719-1.59863,.24512-2.06445,.38574v28.13965h-10.42969v-34.86035c1.86523-.65234,4.07031-1.27051,6.61426-1.85449,2.54297-.58301,5.37793-.875,8.50488-.875,.56055,0,1.23633,.03516,2.03027,.10449,.79297,.07031,1.58594,.16406,2.37988,.28027,.79297,.11719,1.58594,.25684,2.37988,.41992,.79297,.16406,1.4707,.3623,2.03027,.59473l-1.75,8.61035Z"/><path class="cls-2" d="M1718.77051,448.90172c0,2.89453-.41992,5.54297-1.25977,7.94531-.83984,2.4043-2.05371,4.45703-3.63965,6.16016-1.58789,1.7041-3.48926,3.02246-5.70508,3.95508-2.21777,.93262-4.70215,1.40039-7.45508,1.40039-2.70703,0-5.16895-.46777-7.38574-1.40039s-4.11816-2.25098-5.7041-3.95508c-1.58789-1.70312-2.82422-3.75586-3.70996-6.16016-.8877-2.40234-1.33008-5.05078-1.33008-7.94531,0-2.89258,.45508-5.5293,1.36426-7.90918,.91016-2.37988,2.16992-4.41016,3.78027-6.09082,1.61035-1.67969,3.52344-2.98535,5.74023-3.91992,2.21582-.93262,4.63086-1.39941,7.24512-1.39941,2.66016,0,5.09766,.4668,7.31445,1.39941,2.21582,.93457,4.11816,2.24023,5.70508,3.91992,1.58594,1.68066,2.82324,3.71094,3.70996,6.09082,.88574,2.37988,1.33008,5.0166,1.33008,7.90918Zm-10.63965,0c0-3.21973-.64258-5.75-1.9248-7.59473-1.28418-1.84277-3.11523-2.76465-5.49512-2.76465s-4.22461,.92188-5.53027,2.76465c-1.30664,1.84473-1.95996,4.375-1.95996,7.59473,0,3.2207,.65332,5.77539,1.95996,7.66504,1.30566,1.89062,3.15039,2.83496,5.53027,2.83496s4.21094-.94434,5.49512-2.83496c1.28223-1.88965,1.9248-4.44434,1.9248-7.66504Z"/><path class="cls-2" d="M1757.83105,466.12242c-1.77441,.51367-4.06055,.99219-6.86035,1.43457-2.7998,.44336-5.73926,.66504-8.81934,.66504-3.12695,0-5.72949-.41992-7.80566-1.25977-2.07715-.83984-3.72168-2.01758-4.93457-3.53516-1.21387-1.51562-2.07715-3.3252-2.58984-5.4248-.51465-2.10059-.77051-4.41016-.77051-6.92969v-20.51074h10.43066v19.25c0,3.36035,.44238,5.78711,1.3291,7.28027,.88672,1.49414,2.54297,2.24023,4.9707,2.24023,.74609,0,1.54004-.03516,2.37988-.10547,.83984-.06934,1.58594-.15039,2.24023-.24512v-28.41992h10.42969v35.56055Z"/><path class="cls-2" d="M1801.43945,448.97203c0,2.84766-.34961,5.4375-1.0498,7.77051-.7002,2.33398-1.72754,4.33984-3.08008,6.01953-1.35449,1.67969-3.03418,2.9873-5.04004,3.91992-2.00684,.93359-4.31738,1.40039-6.92969,1.40039-1.44727,0-2.7998-.14062-4.06055-.41992-1.25977-.28027-2.47363-.67578-3.63965-1.19043v13.86035h-10.42969v-48.50977c.93262-.28027,2.00586-.54883,3.21973-.80566,1.21289-.25586,2.48535-.47754,3.81445-.66504,1.33008-.18555,2.68359-.33789,4.06055-.45508,1.37598-.11523,2.69531-.1748,3.95508-.1748,3.0332,0,5.74023,.45508,8.12012,1.36523s4.38574,2.19434,6.01953,3.84961c1.63281,1.65723,2.88086,3.67578,3.74512,6.05566,.86328,2.37988,1.29492,5.04004,1.29492,7.97949Zm-10.63965,.28027c0-3.21973-.72461-5.79785-2.16992-7.73535-1.44727-1.93555-3.59473-2.9043-6.44043-2.9043-.93359,0-1.79688,.03418-2.58984,.10449-.79395,.07031-1.44727,.15234-1.95996,.24512v18.83008c.65332,.41992,1.50488,.76953,2.55469,1.0498s2.11133,.41992,3.18555,.41992c4.94531,0,7.41992-3.33594,7.41992-10.00977Z"/></g></g></svg>